PathFileType	4	(X/Y/Z)	24_2_68_p0_0-450_filt_butterworth.trc
DataRate	CameraRate	NumFrames	NumMarkers	Units	OrigDataRate	OrigDataStartFrame	OrigNumFrames
59.0	59.0	4	27	m	59.0	0	450
Frame#	Time	RHip			RKnee			RAnkle			RBigToe			RSmallToe			RHeel			LHip			LKnee			LAnkle			LBigToe			LSmallToe			LHeel			Neck			Head			Nose			RShoulder			RElbow			RWrist			RThumb			RIndex			RPinky			LShoulder			LElbow			LWrist			LThumb			LIndex			LPinky			
		X1	Y1	Z1	X2	Y2	Z2	X3	Y3	Z3	X4	Y4	Z4	X5	Y5	Z5	X6	Y6	Z6	X7	Y7	Z7	X8	Y8	Z8	X9	Y9	Z9	X10	Y10	Z10	X11	Y11	Z11	X12	Y12	Z12	X13	Y13	Z13	X14	Y14	Z14	X15	Y15	Z15	X16	Y16	Z16	X17	Y17	Z17	X18	Y18	Z18	X19	Y19	Z19	X20	Y20	Z20	X21	Y21	Z21	X22	Y22	Z22	X23	Y23	Z23	X24	Y24	Z24	X25	Y25	Z25	X26	Y26	Z26	X27	Y27	Z27	
0	0.0	0.42495928296030294	0.7311372985728433	0.8386503333687663	0.4381696203851325	0.2807440390407049	0.7526784136331863	0.4107964037040842	-0.11815365709029364	0.68740888210056	0.40924411642364433	-0.0651796348071844	0.5057196297566487	0.4661173005998291	-0.05314286947854921	0.5158611635251517	0.3827583455000318	-0.21700562577150082	0.7555889188017568	0.22841838248865537	0.7308666091609651	0.8081988151896216	0.20670255655863595	0.3008816849766685	0.735983149954488	0.2028873446253936	-0.11406401195618496	0.6753306466882162	0.24306429011561573	-0.04193790298448909	0.47931952262819427	0.18183535301846196	-0.08258184220877411	0.5353203560766993	0.20588530269138325	-0.16588805213386182	0.7089186472273189	0.3319113669281445	1.2288291653630463	0.8563480338743996	0.32815216558841304	1.4869911680059689	0.8268025248955008	0.3218734337803746	1.3804714663546092	0.7428484664690682	0.47196026790375023	1.1633719674815124	0.8225348782101604	0.5185152000906326	0.8975563109844131	0.8011554041180011	0.4383701158308845	0.7550531857864862	0.6441694000876286	0.3299363364284476	0.6820114023414827	0.6118504465140127	0.32996251192951964	0.6630194578579565	0.610350011408347	0.3569899386016479	0.6134366300952068	0.6732921960873639	0.18463252454191664	1.143610814702622	0.8243142703482276	0.16976704774969922	0.9308351759038253	0.745864762241337	0.2735895727478372	0.7602326668645164	0.6626695183294451	0.32877275225594293	0.7171503627233128	0.6112252695152575	0.33737057591358566	0.6942472853094388	0.5917766834301297	0.3300432471557782	0.6780490983430444	0.6093903537814719	
1	0.0169491525423728	0.42456373041264034	0.7315708346572848	0.8375374992099462	0.4384175590704316	0.280199234679661	0.7531333960129128	0.4118850601143341	-0.11706279894564309	0.6877130675906287	0.4091345075589926	-0.06383227263151409	0.5046526044458787	0.465940228324352	-0.051071399750025046	0.5141369961420384	0.38367017112571355	-0.21545735836411545	0.7538245401026371	0.22717524459424646	0.7313475363069941	0.8078968467004156	0.204825882682268	0.3018983490977045	0.7359766518151422	0.20265595424504135	-0.11377226731577283	0.6750160390088868	0.24326078786249594	-0.041799261228103665	0.47915182418020724	0.1829110367140199	-0.08093911428479207	0.5337326769979598	0.20588769378852811	-0.16582047200143618	0.709066613572015	0.3317896949479883	1.2273745501362747	0.856100372418364	0.329203657472319	1.4882952154051101	0.8330492420544617	0.3218874332942578	1.3804430888980734	0.7429117437421149	0.4719212320644066	1.163250879644024	0.8227830727534465	0.5185816585231141	0.8954432770719587	0.8012677207956469	0.437940465385439	0.755534756214979	0.6439781739959777	0.32887982575492075	0.6868893784461478	0.6074097850592048	0.3297842773670703	0.662652495624092	0.6094140273111608	0.355130065075511	0.6122631201807642	0.6726648373831645	0.18432301341794233	1.1439148421105203	0.8251881298313966	0.16862470580516006	0.9302957444682874	0.7470127676128092	0.2716563993207783	0.7623402705971288	0.6581194391775371	0.32929427131610556	0.722407380624834	0.6057658850887158	0.3353873778082514	0.6950879068012547	0.5906391265063142	0.32870513387241046	0.6823463347329262	0.6051793331479958	
2	0.0338983050847457	0.42430490846444785	0.7321279505402551	0.8365312885938432	0.43857963997912036	0.2797743770310728	0.7534375505913952	0.41271569088518706	-0.11608911436594212	0.6879521316806313	0.40912283703861985	-0.06342935758122849	0.5043433140211757	0.4661232644517685	-0.050249483277320955	0.51411787260869	0.38434799040278633	-0.21427409287581972	0.7525899688961795	0.2261844337503534	0.731718402692105	0.8076848629682828	0.20325380157954875	0.3025681799995804	0.7359885612087663	0.20246216018149438	-0.11339793520739357	0.6746004707324068	0.243386308171651	-0.04174130702577655	0.4790905807891364	0.1833095695734006	-0.08032778215995236	0.5331643203684286	0.2059067787500044	-0.16568903884910235	0.7091941304488457	0.3317014392678659	1.2263506782116285	0.8559411502912111	0.32964948068541683	1.4894880407458218	0.8359394265633285	0.321893402080411	1.380500009702008	0.742971043111708	0.4719061200209276	1.1631769364343882	0.822927759468102	0.5185659196736114	0.8934279123777573	0.80345884024732	0.4378878579784775	0.7556431814377739	0.6439592268346601	0.32824834069063596	0.6897429053741757	0.6045256258735754	0.32972160718749327	0.6623492043050233	0.6092863896288424	0.35378966367554854	0.6122993079961199	0.6718847513504236	0.1842728272433846	1.144035638913829	0.825334459468347	0.1676737619975698	0.9302630221586239	0.7470055663027035	0.27019800817138867	0.7639560692996896	0.6548330677308328	0.32984073596495544	0.7252804197012537	0.6020153644134731	0.33425418257399764	0.695336593374064	0.5899142890767661	0.32786053054749553	0.6850748387867546	0.602503133223167	
3	0.0508474576271186	0.42416760293660555	0.7327839585559797	0.8356306606193564	0.4386633885442375	0.27945844603098247	0.7536063296375062	0.4133109735519943	-0.11522634171706149	0.6881318137616549	0.4091823827625988	-0.06372836403909633	0.5045926742986733	0.46657281501603015	-0.05042158393641212	0.5153994892547853	0.3848138562384339	-0.21342362816880284	0.7518357163749536	0.22542777387788934	0.7319839955842625	0.8075551198002584	0.201962230303338	0.3029201146232141	0.7360162334155336	0.20230223130964825	-0.1129529744119733	0.6740982398086793	0.2434526828546547	-0.04174577227267738	0.4791118613590626	0.1831965603172199	-0.08049637568753597	0.5333661440803447	0.20594054458320704	-0.16550172557261184	0.7093023930176603	0.3316407856553479	1.225684733174031	0.8558550055206728	0.3296297395545098	1.490553576442643	0.8362247996869178	0.32189046327060467	1.3805832296404588	0.7430192510638347	0.471907016310936	1.1631400636996738	0.8229927317243328	0.5185193235586805	0.8916257868753543	0.8069863428608741	0.4380718977256393	0.7555069653103308	0.6440486768514516	0.3279306658860365	0.6910510930016396	0.6029415108938943	0.3297174450887823	0.6622645105452034	0.6096650687155949	0.3529412426873803	0.6134617200760119	0.6708035422216917	0.18437645245705309	1.1439717232107771	0.8250160525021362	0.16690496359947937	0.9306054366596991	0.746156206157132	0.2691036223926072	0.7652761976231764	0.6525122016160612	0.33038014702637186	0.7264034051555798	0.5997088976981061	0.3337989094943113	0.695228259191468	0.5895428484546847	0.3274136953471497	0.6865477561045743	0.601064808772628	
